<svg width="300" height="319" viewBox="0 0 300 319" fill="none" xmlns="http://www.w3.org/2000/svg">
<path d="M141.416 1.34359C130.277 3.12164 130.672 3.7682 142.6 3.44492C172.145 2.55589 202.243 10.7187 224.283 25.5897C227.206 27.5294 230.208 29.8731 230.998 30.7622C231.788 31.6512 232.815 32.3786 233.289 32.3786C234.553 32.3786 226.89 24.7006 221.598 20.5788C200.031 3.84902 170.486 -3.18234 141.416 1.34359Z" fill="#1C3329"/>
<path d="M219.149 10.6378C239.056 21.0636 252.88 34.4798 261.175 51.2904C262.676 54.2808 264.019 56.6246 264.256 56.3821C265.125 55.5739 260.148 42.4002 257.304 37.8743C249.563 25.5896 238.503 16.9418 223.02 10.9611C216.7 8.53651 214.804 8.37487 219.149 10.6378Z" fill="#1C3329"/>
<path d="M118.822 13.7899C92.2792 18.7199 70.0811 29.5498 51.6747 46.5221C47.8829 50.0782 48.9098 49.5933 57.2045 43.855C69.4491 35.4497 92.1212 25.428 107.368 21.5486C134.622 14.6789 163.614 14.5173 183.995 21.0637C190.078 22.9226 190.552 23.0034 187.945 21.4678C185.417 19.9322 171.671 15.4871 165.036 14.0323C161.955 13.3858 153.344 12.7392 143.706 12.5776C129.961 12.2543 126.169 12.4159 118.822 13.7899Z" fill="#1C3329"/>
<path d="M260.938 35.1265C266.784 42.4811 271.129 52.0179 274.447 64.7067C276.184 71.4148 276.184 71.4956 276.816 68.5861C277.685 63.9793 275.947 55.2507 272.946 48.9467C270.023 43.0468 263.861 35.3689 259.674 32.2169C257.541 30.6813 257.699 31.0046 260.938 35.1265Z" fill="#1C3329"/>
<path d="M100.653 33.5909C57.0465 45.3906 23.3937 73.3545 8.62125 109.885C7.3573 113.037 6.48833 115.623 6.64632 115.623C6.80432 115.623 8.54225 112.795 10.5962 109.4C17.7059 97.2773 23.3937 90.0034 35.0853 78.042C54.8345 57.837 77.1907 43.451 101.759 35.0456C106.341 33.5101 110.291 32.0553 110.449 31.8937C111.317 31.0855 107.21 31.8128 100.653 33.5909Z" fill="#1C3329"/>
<path d="M281.161 64.3834C281.477 67.0505 281.556 70.9299 281.398 73.1928C281.161 76.9106 281.24 77.0722 282.346 75.6983C284.795 72.3846 284.479 65.1108 281.714 61.1506C280.845 59.8575 280.766 60.3424 281.161 64.3834Z" fill="#1C3329"/>
<path d="M44.0121 82.0023C21.4189 101.722 4.67153 132.03 1.11666 159.751C-0.147293 169.611 -0.384284 181.735 0.642678 187.149C1.11666 189.897 1.27466 189.251 1.74864 182.543C4.03955 147.871 21.6559 107.38 44.8811 83.053C48.1199 79.6585 50.6478 76.8298 50.4109 76.8298C50.1739 76.8298 47.251 79.1736 44.0121 82.0023Z" fill="#1C3329"/>
<path d="M284.637 77.9612C284.4 78.6886 284.4 80.6283 284.716 82.3255L285.269 85.3159L282.583 82.8104C278.791 79.1735 275.474 77.6379 271.129 77.6379C264.177 77.7188 260.622 81.5173 260.622 89.0336C260.622 94.2869 263.071 99.8635 267.732 105.359C269.47 107.38 270.892 109.158 270.892 109.4C270.892 109.643 269.549 109.481 267.969 109.077C259.121 106.976 248.378 109.562 242.453 115.3C238.108 119.422 236.528 123.544 237.081 129.201C237.555 134.293 239.846 137.607 244.428 139.87C246.877 141.082 247.725 141.157 248.936 141.56C250.851 142.198 251.063 142.26 252.128 142.198C254.893 142.036 255.566 143.911 255.724 143.022C256.119 140.759 253.67 139.061 249.957 139.061C244.191 139.061 240.083 133.808 240.083 126.453C240.162 118.371 251.853 109.966 262.992 109.966C269.865 109.966 276.5 113.603 278.396 118.371C280.608 123.867 280.608 130.252 278.396 125.079C277.448 122.978 274.289 122.332 272.156 123.948C270.102 125.484 269.47 133.161 271.208 135.424C272.156 136.718 272.393 136.798 272.472 135.748C272.472 134.616 274.763 132.111 278.317 129.282C279.739 128.231 279.818 128.312 279.423 133.081C278.949 138.576 276.185 144.8 272.709 148.113C271.05 149.73 269.549 150.295 266.31 150.538C264.098 150.619 262.202 150.699 262.202 150.538C262.202 150.457 262.755 149.487 263.387 148.517C266.863 143.102 267.653 130.979 264.967 124.918L263.861 122.493L264.414 125.726C266.784 139.385 261.333 150.861 251.063 153.932C238.424 157.812 218.912 159.105 208.089 156.923C201.295 155.549 190.315 151.912 190.315 151.104C190.315 150.699 190.789 150.621 191.263 150.376C191.737 150.131 191.88 149.808 191.489 149.849C190.868 149.916 187.155 151.912 187.155 152.72C187.155 153.043 187.629 153.367 188.182 153.447C188.656 153.447 192.369 154.821 196.397 156.357C206.351 160.317 213.54 161.772 224.283 161.853C234.158 161.933 242.69 160.56 253.591 157.246C257.225 156.114 262.281 154.902 264.809 154.498C269.075 153.932 269.312 153.932 269.312 155.63C269.312 158.781 265.125 166.136 260.622 170.581C255.724 175.511 249.089 179.471 242.216 181.492C239.688 182.219 237.792 183.028 237.95 183.189C238.74 184.078 251.142 180.845 255.566 178.663C264.256 174.38 272.393 163.712 273.815 154.821C274.131 153.043 275.632 149.972 277.369 147.628C282.109 141.163 284.4 131.141 282.899 122.897C282.425 120.473 282.188 118.371 282.267 118.291C282.346 118.129 283.926 119.341 285.743 120.877C290.325 124.918 293.88 132.677 294.433 139.708C295.144 149.891 289.693 165.813 281.477 177.613C272.472 190.544 262.676 199.111 238.819 215.275C218.991 228.691 217.411 229.903 208.958 238.309C201.848 245.421 196.792 252.937 193.396 261.262C189.999 269.667 190.631 270.475 194.502 262.878C198.609 254.634 205.166 246.633 213.54 239.44C221.756 232.328 222.625 231.843 219.307 236.288C208.247 251.159 203.27 266.757 203.902 284.457C204.218 292.216 204.692 295.125 206.746 301.348C209.037 308.137 214.725 319.695 215.436 318.967C215.594 318.806 215.12 317.512 214.488 316.219C212.197 311.693 209.353 299.974 208.484 291.731C205.64 262.797 219.386 234.995 245.771 216.568C271.603 198.626 282.899 186.988 291.431 169.773C302.175 148.032 302.886 120.149 293.169 97.4389C291.668 93.8828 289.614 88.9528 288.587 86.5282C287.56 84.1036 286.691 81.1132 286.691 79.9009C286.691 77.3955 285.348 76.1024 284.637 77.9612ZM277.29 82.4063C281.635 85.2351 283.452 87.3364 287.007 93.3171C291.51 100.995 294.67 112.633 295.697 125.322L296.25 131.383L294.512 128.151C291.589 122.574 288.508 119.18 282.82 115.3C279.818 113.199 276.816 110.855 276.106 110.047C274.921 108.673 275 108.592 277.211 108.592C279.66 108.592 283.531 106.248 284.163 104.389C284.321 103.824 283.61 104.309 282.425 105.44C279.66 108.35 274.289 108.43 271.682 105.521C269.549 103.258 269.707 103.177 273.183 104.389C276.343 105.521 279.265 104.794 281.635 102.126C282.978 100.672 283.768 100.268 284.479 100.833C287.639 103.339 288.113 102.207 285.111 99.5402C279.028 94.0445 274.763 93.4787 269.628 97.4389C266.705 99.7827 265.757 99.2978 267.337 96.2266C268.917 93.0746 271.919 91.3774 275.79 91.3774C278.475 91.2966 278.87 91.1349 277.843 90.4884C275.711 89.2761 270.576 90.9733 267.732 93.8828L265.362 96.3882L264.177 93.4787C262.044 88.2254 262.992 83.3762 266.705 81.3557C270.102 79.4968 273.341 79.8201 277.29 82.4063Z" fill="#1C3329"/>
<path d="M279.581 91.7006C279.581 91.8623 280.529 92.6704 281.793 93.3978L283.926 94.8526L282.425 93.1554C281.082 91.539 279.581 90.8116 279.581 91.7006Z" fill="#1C3329"/>
<path d="M172.935 80.0625C144.891 87.7404 109.58 121.927 91.8843 158.458C87.3025 167.914 81.2197 184.886 81.3777 187.958C81.3777 188.847 82.2467 187.149 83.2737 184.24C84.2216 181.33 87.0655 174.784 89.5144 169.773C106.499 135.344 136.044 102.126 161.955 88.387C181.704 77.9612 202.401 80.5474 208.958 94.2869C213.066 102.935 210.222 111.421 199.715 121.685C192.211 129.04 187.392 131.464 166.221 138.738C138.651 148.194 122.693 157.327 109.343 171.47C98.4411 183.028 93.2273 191.675 89.2774 204.849C86.8285 213.093 87.3025 213.901 90.2254 206.465C96.4662 190.786 112.029 171.955 127.512 161.529C138.256 154.175 152.633 147.305 168.196 141.89C175.384 139.385 184.943 135.505 189.525 133.242C196.397 129.848 198.767 128.151 203.349 123.382C212.592 113.765 215.515 105.278 212.829 95.7416C211.091 89.5185 205.324 83.5378 198.53 80.8707C191.816 78.2036 180.835 77.8803 172.935 80.0625Z" fill="#1C3329"/>
<path d="M177.201 97.0348C174.594 98.3279 171.276 100.753 169.775 102.369C166.616 105.763 167.722 105.359 173.172 100.914C176.49 98.2471 180.361 96.6307 186.76 95.1759C187.629 94.9335 186.918 94.7719 185.101 94.691C182.968 94.6102 180.282 95.4184 177.201 97.0348Z" fill="#1C3329"/>
<path d="M191.5 95.3375C191.737 95.8225 192.369 96.2266 192.764 96.2266C193.158 96.2266 194.975 97.1964 196.871 98.3279C199.557 100.025 199.873 100.106 198.609 98.8128C196.871 96.954 190.631 93.9636 191.5 95.3375Z" fill="#1C3329"/>
<path d="M183.363 101.884C181.941 102.207 178.702 103.824 176.253 105.359C173.725 106.976 168.985 109.562 165.747 111.098C159.427 114.088 159.901 114.734 167.09 112.795C171.276 111.663 171.75 111.744 174.041 113.118C180.835 117.402 189.209 116.917 194.896 111.987C197.582 109.643 198.688 109.158 201.848 109.158C205.087 109.158 206.272 108.269 203.507 107.865C202.954 107.784 200.742 106.572 198.609 105.198C192.685 101.318 188.893 100.51 183.363 101.884Z" fill="#1C3329"/>
<path d="M196.16 116.512C195.924 116.997 193.791 118.29 191.579 119.341C184.943 122.493 176.49 121.847 172.382 117.886C171.355 116.917 170.565 116.512 170.565 117.078C170.565 118.614 174.989 121.2 179.176 122.251C184.311 123.463 189.841 122.251 194.739 118.856C196.634 117.482 198.214 116.189 198.214 116.027C198.214 115.219 196.713 115.623 196.16 116.512Z" fill="#1C3329"/>
<path d="M250.273 125.241C249.01 126.534 247.983 128.474 247.983 129.525C247.983 136.475 258.568 138.011 260.148 131.303C260.859 128.393 259.437 124.918 256.988 123.786C253.986 122.412 252.801 122.655 250.273 125.241Z" fill="#1C3329"/>
<path d="M19.8389 143.345C9.88525 167.672 8.22631 196.363 15.415 220.043C17.311 226.428 25.1317 244.451 25.7637 243.885C25.8427 243.724 25.1317 241.056 24.1047 237.985C21.6558 230.954 19.3649 221.74 17.548 211.799C16.442 205.819 16.205 199.919 16.205 184.725C16.205 164.358 16.995 157.892 21.2608 143.102C22.1298 140.274 22.6828 137.849 22.5248 137.687C22.3668 137.526 21.1818 140.112 19.8389 143.345Z" fill="#1C3329"/>
<path d="M28.0546 204.93C29.0816 219.316 33.8214 237.581 39.5882 249.3C44.328 258.999 50.8058 267.97 58.7845 276.133C68.1062 285.589 72.925 289.064 65.9732 281.224C61.2334 275.809 50.4108 259.726 45.592 250.593C39.1142 238.47 33.0315 222.064 29.5556 206.95L27.5807 198.464L28.0546 204.93Z" fill="#1C3329"/>
<path d="M57.5995 247.199C57.5995 247.684 60.3644 252.371 63.7613 257.625C77.5068 278.88 91.2523 290.761 113.213 300.298C123.72 304.904 125.379 304.904 117.005 300.298C97.888 289.791 73.8729 269.02 62.4183 253.179C59.8114 249.462 57.5995 246.795 57.5995 247.199Z" fill="#1C3329"/>
<path d="M194.681 106.808C194.681 109.449 192.537 111.59 189.894 111.59C187.25 111.59 185.106 109.449 185.106 106.808C185.106 104.166 187.25 102.025 189.894 102.025C192.537 102.025 194.681 104.166 194.681 106.808Z" fill="#FDFBF6"/>
<path d="M280.851 99.6339C280.851 101.835 279.065 103.619 276.862 103.619C274.658 103.619 272.872 101.835 272.872 99.6339C272.872 97.4328 274.658 95.6485 276.862 95.6485C279.065 95.6485 280.851 97.4328 280.851 99.6339Z" fill="#FDFBF6"/>
</svg>
